<?xml version="1.0" encoding="UTF-8"?>
<svg viewBox="0 0 42 26" xmlns="http://www.w3.org/2000/svg" xmlns:xlink="http://www.w3.org/1999/xlink">
<defs>
<path id="d" d="M0 .012h41.989v25.113H0"/>
</defs>
<g fill="none" fill-rule="evenodd">
<mask id="c" fill="#fff">
<use xlink:href="#d"/>
</mask>
<path d="M25.054 11.245c-.048-.452-.12-.898-.214-1.33l-7.692-.002c.096-.451.22-.895.366-1.33h6.963a12.735 12.735 0 0 0-.534-1.329l-5.895-.001c.215-.458.457-.902.724-1.33l4.448-.002c-.29-.463-.61-.907-.957-1.33l-2.535.002c.39-.472.81-.918 1.267-1.329A12.512 12.512 0 0 0 12.56.012C5.623.012 0 5.635 0 12.575c0 6.936 5.624 12.559 12.56 12.559a12.51 12.51 0 0 0 8.434-3.248c.453-.411.922-.856 1.31-1.333H19.73a11.81 11.81 0 0 1-.957-1.33l4.447.001c.267-.427.509-.871.724-1.33h-5.895a11.805 11.805 0 0 1-.537-1.33h6.966a12.764 12.764 0 0 0 .576-2.66c.045-.436.071-.88.068-1.33.001-.448-.022-.893-.068-1.329" fill="#FF2830" mask="url(#c)"/>
<path d="M20.994 21.886a12.52 12.52 0 0 0 8.432 3.25c6.94 0 12.562-5.624 12.563-12.564 0-6.936-5.623-12.562-12.563-12.56a12.5 12.5 0 0 0-8.43 3.252c-.458.411-.878.857-1.268 1.33l2.535-.002c.347.422.668.866.957 1.33l-4.448.001c-.267.428-.509.872-.724 1.33l5.895.001c.201.431.381.876.534 1.33l-6.963-.001c-.146.435-.27.879-.366 1.33l7.692.002a12.667 12.667 0 0 1 .001 5.319c-.096.454-.22.896-.363 1.33h-6.966c.152.457.332.898.537 1.33h5.895c-.215.459-.457.903-.724 1.33l-4.447-.001c.292.467.606.91.957 1.33h2.574l-1.31 1.333" fill="#FC931E" mask="url(#c)"/>
<path d="M20.458 12.369c0-.42-.237-.665-.644-.663-.31-.001-.561.173-.722.5a.728.728 0 0 1 .378-.103c.357 0 .586.193.633.53h.345a3.26 3.26 0 0 0 .01-.264M19.82 15.915c-1.52 0-2.312-.793-2.312-2.312-.001-.764.186-1.442.508-1.966-.503.555-.807 1.39-.81 2.365 0 1.52.88 2.315 2.312 2.316a4.75 4.75 0 0 0 1.392-.211l.06-.332c-.38.094-.757.143-1.15.14M27.819 10.7c-.527-.002-.97.263-1.28.714.262-.202.569-.313.91-.314.376 0 .729.099 1.212.343l.088-.531c-.346-.15-.632-.213-.93-.212M27.075 15.933c-1.464.001-2.378-1.05-2.377-2.74 0-1.45.516-2.623 1.354-3.278a3.62 3.62 0 0 0-.95.754l-.16-.049-.098.183c-.18.37-.316.781-.42 1.317-.052-.008-.056-.005-.098-.004-.325 0-.52.133-.696.665.14-.134.3-.174.489-.174.036-.001.164 0 .232.004-.047.31-.07.635-.069.96.009 1.687.958 2.763 2.422 2.762.377 0 .702-.049 1.202-.185l.055-.32a3.62 3.62 0 0 1-.886.105M21.7 15.818l.764-4.766h-.282l-.83 5.166h1.36c.022-.137.045-.271.063-.4H21.7M39.033 11.28l.231-1.415h-.327l-.182 1.108c.096.085.186.19.278.307M38.71 12.86c-.003-.656-.255-1.012-.723-1.013-.327 0-.601.2-.787.542a.749.749 0 0 1 .443-.141c.465 0 .72.356.72 1.011 0 .482-.1.89-.267 1.194.375-.262.613-.844.614-1.594M32.894 15.82l.764-4.77-.282.003-.83 5.166 1.36.001.066-.4h-1.078" fill="#6F909D"/>
<path d="M38.35 15.818l.065-.505c-.37.397-.758.572-1.257.574-.988-.001-1.642-.852-1.64-2.146 0-.982.331-1.876.836-2.463-.3.2-.547.49-.74.842-.048-.006-.055-.004-.094-.006-.36.002-.56.167-.752.85.188-.261.392-.344.626-.354-.162.456-.245.981-.247 1.531.002 1.29.678 2.145 1.667 2.146.498-.002.883-.177 1.256-.573l-.067.504h1.287l.063-.4H38.35M1.228 15.82l.996-5.953-.324-.003L.835 16.22l1.32.002.066-.403-.993.001M4.3 13.397l1.186-3.53-.259-.001-.936 2.793.008.738M5.319 15.82l.78-4.885-.513 1.437-.612 3.848h1.36l.066-.403-1.081.003M3.433 15.817l-.115-4.853-.312 1.849.082 3.408.927-.001.141-.403h-.723M7.897 12.284c.301-.089.741-.145 1.128-.146.573.001.82.105.864.376.097.007.197.018.3.03.044-.168.054-.242.054-.334-.001-.344-.235-.472-.87-.469a4.293 4.293 0 0 0-1.131.143l-.188.055-.12.033.135-.843c-.095.023-.19.052-.293.08l-.189 1.163.123-.032.187-.056M10.03 13.517a2.282 2.282 0 0 0-.305-.02c-.635-.001-1.01.179-1.123.533.177-.09.412-.135.71-.136.092 0 .154.005.288.024-.01.307-.054.572-.142.782.331-.189.553-.623.572-1.183M9.89 15.819l.027-.537c-.344.424-.802.628-1.427.625-.737.002-1.24-.573-1.24-1.411-.002-.433.103-.801.302-1.104-.312.238-.49.553-.594.942l-.059.374a1.91 1.91 0 0 0-.01.189c0 .835.52 1.412 1.256 1.41.623 0 1.08-.201 1.378-.625l-.026.537 1.176.001.013-.142.034-.26h-.83M12.735 15.904a10.346 10.346 0 0 1-1.105-.09l-.247-.054-.061-.012.109-.705c-.098-.027-.199-.054-.312-.087l-.161 1.193.077.01.248.055a8.459 8.459 0 0 0 1.105.086c.979 0 1.594-.254 1.889-.79-.345.263-.854.392-1.542.394M12.87 13.725c-.719-.34-1.036-.787-1.036-1.44a1.862 1.862 0 0 1 .223-.937c-.291.23-.46.545-.529.898a4.208 4.208 0 0 1-.04.381c0 .02 0 .04.002.056 0 .655.317 1.102 1.032 1.442.55.257.635.334.634.57.003.007.002.013 0 .02.236-.069.347-.204.348-.42 0-.236-.084-.31-.634-.57M16.79 11.907l-.073.448h.491l.066-.446-.484-.002M16.082 15.924c-.697-.003-1.074-.4-1.075-1.136 0-.144.012-.3.042-.463l.08-.506.064-.407.524-3.126h-.282l-.59 3.526-.026.17c.007.063.008.129.008.198.002.334-.054.614-.162.851a2.5 2.5 0 0 0-.006.157c.002.733.382 1.134 1.075 1.136.315-.002.604-.053.977-.167l.051-.32a2.726 2.726 0 0 1-.68.087M29.32 12.282c.3-.085.737-.142 1.126-.143.573.002.82.105.865.377.094.006.197.014.3.029.04-.172.054-.242.054-.337-.001-.34-.239-.469-.874-.47a4.424 4.424 0 0 0-1.128.147l-.187.052-.123.035.135-.845c-.092.026-.19.052-.293.083l-.19 1.162.123-.035.191-.055M31.448 13.518a2.387 2.387 0 0 0-.304-.024c-.633.003-1.008.18-1.123.534.176-.087.415-.132.713-.132.092 0 .15.004.285.02-.007.307-.05.572-.143.785.335-.192.556-.622.572-1.183M31.31 15.817l.028-.533c-.344.423-.804.624-1.427.625-.736-.002-1.242-.577-1.243-1.413.002-.432.107-.803.302-1.103-.322.246-.54.582-.637.994.06-.028.12-.055.182-.086l-.175 1.063c.165.577.634.944 1.227.945.622-.001 1.08-.202 1.378-.625l-.026.536 1.176-.002.013-.139.033-.26-.832-.002" fill="#6F909D"/>
<path d="M17.059 15.753c-.373.118-.662.17-.977.171-.697-.003-1.074-.4-1.075-1.136 0-.144.012-.3.042-.463l.08-.506.064-.407.59-3.526h1.352l-.156.767.694-.001-.19 1.257-.693-.002-.359 2.157a1.351 1.351 0 0 0-.023.213c-.002.268.14.383.464.383.154.001.274-.014.367-.047l-.18 1.14M11.834 12.286c0 .652.317 1.099 1.036 1.439.55.26.634.334.634.57 0 .321-.243.467-.78.467a3.785 3.785 0 0 1-1.215-.206l-.187 1.192.06.012.248.054a10.346 10.346 0 0 0 1.104.09c1.432-.003 2.095-.549 2.093-1.724.001-.711-.275-1.126-.954-1.441-.57-.26-.637-.319-.636-.56 0-.28.226-.42.665-.422.265.002.628.03.975.078l.194-1.197a9.975 9.975 0 0 0-1.197-.1c-1.517 0-2.044.794-2.04 1.748M29.255 9.663l-.224 1.38c-.483-.244-.836-.343-1.212-.343-1.015-.002-1.726.979-1.73 2.38.003.963.481 1.548 1.27 1.547.334.001.703-.104 1.156-.326l-.238 1.447c-.504.136-.826.186-1.202.185-1.464.001-2.378-1.05-2.377-2.74.002-2.273 1.26-3.862 3.064-3.86.232 0 .435.021.606.065l.56.14c.172.06.206.075.327.125M37.63 14.604c.632-.003 1.077-.72 1.08-1.745-.003-.655-.255-1.011-.723-1.012-.615 0-1.054.72-1.055 1.735 0 .678.237 1.02.698 1.022m2.004 1.214H38.35l.065-.505c-.37.397-.758.572-1.257.574-.988-.001-1.642-.852-1.64-2.146-.002-1.72 1.01-3.17 2.212-3.168.528-.001.93.216 1.303.707l.297-1.815 1.343.001-1.039 6.352M20.448 12.633a3.26 3.26 0 0 0 .01-.264c0-.42-.237-.665-.644-.663-.428-.002-.737.329-.863.923l1.497.004m.764 3.074a4.57 4.57 0 0 1-1.392.208c-1.52 0-2.312-.793-2.312-2.312 0-1.776 1.005-3.079 2.374-3.08 1.12 0 1.833.732 1.833 1.878.002.38-.047.75-.166 1.277l-2.702-.002c-.011.08-.013.116-.013.162-.002.599.404.905 1.193.904.485.002.921-.1 1.412-.326l-.227 1.291M24.89 10.61a.496.496 0 0 0-.135-.013c-.446 0-.7.226-1.117.84l.12-.786h-1.231l-.827 5.167h1.36c.485-3.16.614-3.702 1.266-3.702.042-.001.046-.004.097.004.124-.625.29-1.083.518-1.5l-.05-.01M36.085 10.608c-.042-.006-.087-.012-.136-.013-.446 0-.7.23-1.117.84l.12-.783H33.72l-.826 5.167 1.36-.002c.485-3.158.614-3.703 1.266-3.703.042-.001.04-.001.094.006.12-.625.29-1.082.518-1.499l-.047-.013M6.681 15.817l-1.362.003.78-4.885-1.74 4.884-.926-.002-.115-4.853-.819 4.853-1.27.002 1.06-6.352h1.956l.054 3.93L5.62 9.466l2.113.001-1.052 6.35M11.017 15.82l-1.126-.001.026-.537c-.344.424-.802.628-1.427.625-.737.002-1.24-.573-1.24-1.411 0-1.258.878-1.99 2.385-1.991.157-.001.352.013.555.038.043-.167.053-.241.053-.333-.001-.344-.235-.472-.87-.469a4.293 4.293 0 0 0-1.131.143l-.188.055-.12.033.187-1.163c.676-.197 1.125-.271 1.626-.273 1.17 0 1.787.526 1.786 1.514 0 .256-.02.45-.111 1.026l-.283 1.83-.083.592-.022.18-.017.142m-.987-2.303a2.282 2.282 0 0 0-.305-.02c-.77 0-1.16.263-1.161.783 0 .325.191.528.486.53.556 0 .955-.527.98-1.293M32.452 15.679l.025-.18.034-.264.05-.327.283-1.834c.09-.573.11-.767.11-1.022-.001-.993-.62-1.515-1.788-1.515-.501-.002-.947.073-1.624.273l-.189 1.162.123-.035.187-.052c.301-.089.741-.145 1.128-.146.635 0 .873.129.874.47 0 .094-.014.164-.054.336-.203-.025-.4-.04-.555-.039-1.509-.002-2.385.733-2.388 1.99.001.836.507 1.411 1.243 1.413.623-.001 1.083-.202 1.427-.625l-.029.533h1.13l.013-.138m-1.98-.87c-.298 0-.489-.207-.487-.527-.002-.521.39-.788 1.159-.788.098.001.163.007.304.024-.025.762-.423 1.29-.976 1.29" fill="#FFF"/>
</g>
</svg>
